<?xml version="1.0" encoding="UTF-8" standalone="no"?>
<!DOCTYPE svg PUBLIC "-//W3C//DTD SVG 1.1//EN"
 "http://www.w3.org/Graphics/SVG/1.1/DTD/svg11.dtd">
<!-- Generated by graphviz version 2.36.0 (20140111.2315)
 -->
<!-- Title: leiserchess; 1196 samples Pages: 1 -->
<svg width="100%" height="100%"
  xmlns="http://www.w3.org/2000/svg" xmlns:xlink="http://www.w3.org/1999/xlink">
<script type="text/ecmascript"><![CDATA[
// SVGPan
// http://www.cyberz.org/blog/2009/12/08/svgpan-a-javascript-svg-panzoomdrag-library/
// Local modification: if(true || ...) below to force panning, never moving.

/**
 *  SVGPan library 1.2
 * ====================
 *
 * Given an unique existing element with id "viewport", including the
 * the library into any SVG adds the following capabilities:
 *
 *  - Mouse panning
 *  - Mouse zooming (using the wheel)
 *  - Object dargging
 *
 * Known issues:
 *
 *  - Zooming (while panning) on Safari has still some issues
 *
 * Releases:
 *
 * 1.2, Sat Mar 20 08:42:50 GMT 2010, Zeng Xiaohui
 *	Fixed a bug with browser mouse handler interaction
 *
 * 1.1, Wed Feb  3 17:39:33 GMT 2010, Zeng Xiaohui
 *	Updated the zoom code to support the mouse wheel on Safari/Chrome
 *
 * 1.0, Andrea Leofreddi
 *	First release
 *
 * This code is licensed under the following BSD license:
 *
 * Copyright 2009-2010 Andrea Leofreddi <a.leofreddi@itcharm.com>. All rights reserved.
 *
 * Redistribution and use in source and binary forms, with or without modification, are
 * permitted provided that the following conditions are met:
 *
 *    1. Redistributions of source code must retain the above copyright notice, this list of
 *       conditions and the following disclaimer.
 *
 *    2. Redistributions in binary form must reproduce the above copyright notice, this list
 *       of conditions and the following disclaimer in the documentation and/or other materials
 *       provided with the distribution.
 *
 * THIS SOFTWARE IS PROVIDED BY Andrea Leofreddi ``AS IS'' AND ANY EXPRESS OR IMPLIED
 * WARRANTIES, INCLUDING, BUT NOT LIMITED TO, THE IMPLIED WARRANTIES OF MERCHANTABILITY AND
 * FITNESS FOR A PARTICULAR PURPOSE ARE DISCLAIMED. IN NO EVENT SHALL Andrea Leofreddi OR
 * CONTRIBUTORS BE LIABLE FOR ANY DIRECT, INDIRECT, INCIDENTAL, SPECIAL, EXEMPLARY, OR
 * CONSEQUENTIAL DAMAGES (INCLUDING, BUT NOT LIMITED TO, PROCUREMENT OF SUBSTITUTE GOODS OR
 * SERVICES; LOSS OF USE, DATA, OR PROFITS; OR BUSINESS INTERRUPTION) HOWEVER CAUSED AND ON
 * ANY THEORY OF LIABILITY, WHETHER IN CONTRACT, STRICT LIABILITY, OR TORT (INCLUDING
 * NEGLIGENCE OR OTHERWISE) ARISING IN ANY WAY OUT OF THE USE OF THIS SOFTWARE, EVEN IF
 * ADVISED OF THE POSSIBILITY OF SUCH DAMAGE.
 *
 * The views and conclusions contained in the software and documentation are those of the
 * authors and should not be interpreted as representing official policies, either expressed
 * or implied, of Andrea Leofreddi.
 */

var root = document.documentElement;

var state = 'none', stateTarget, stateOrigin, stateTf;

setupHandlers(root);

/**
 * Register handlers
 */
function setupHandlers(root){
	setAttributes(root, {
		"onmouseup" : "add(evt)",
		"onmousedown" : "handleMouseDown(evt)",
		"onmousemove" : "handleMouseMove(evt)",
		"onmouseup" : "handleMouseUp(evt)",
		//"onmouseout" : "handleMouseUp(evt)", // Decomment this to stop the pan functionality when dragging out of the SVG element
	});

	if(navigator.userAgent.toLowerCase().indexOf('webkit') >= 0)
		window.addEventListener('mousewheel', handleMouseWheel, false); // Chrome/Safari
	else
		window.addEventListener('DOMMouseScroll', handleMouseWheel, false); // Others

	var g = svgDoc.getElementById("svg");
	g.width = "100%";
	g.height = "100%";
}

/**
 * Instance an SVGPoint object with given event coordinates.
 */
function getEventPoint(evt) {
	var p = root.createSVGPoint();

	p.x = evt.clientX;
	p.y = evt.clientY;

	return p;
}

/**
 * Sets the current transform matrix of an element.
 */
function setCTM(element, matrix) {
	var s = "matrix(" + matrix.a + "," + matrix.b + "," + matrix.c + "," + matrix.d + "," + matrix.e + "," + matrix.f + ")";

	element.setAttribute("transform", s);
}

/**
 * Dumps a matrix to a string (useful for debug).
 */
function dumpMatrix(matrix) {
	var s = "[ " + matrix.a + ", " + matrix.c + ", " + matrix.e + "\n  " + matrix.b + ", " + matrix.d + ", " + matrix.f + "\n  0, 0, 1 ]";

	return s;
}

/**
 * Sets attributes of an element.
 */
function setAttributes(element, attributes){
	for (i in attributes)
		element.setAttributeNS(null, i, attributes[i]);
}

/**
 * Handle mouse move event.
 */
function handleMouseWheel(evt) {
	if(evt.preventDefault)
		evt.preventDefault();

	evt.returnValue = false;

	var svgDoc = evt.target.ownerDocument;

	var delta;

	if(evt.wheelDelta)
		delta = evt.wheelDelta / 3600; // Chrome/Safari
	else
		delta = evt.detail / -90; // Mozilla

	var z = 1 + delta; // Zoom factor: 0.9/1.1

	var g = svgDoc.getElementById("viewport");

	var p = getEventPoint(evt);

	p = p.matrixTransform(g.getCTM().inverse());

	// Compute new scale matrix in current mouse position
	var k = root.createSVGMatrix().translate(p.x, p.y).scale(z).translate(-p.x, -p.y);

        setCTM(g, g.getCTM().multiply(k));

	stateTf = stateTf.multiply(k.inverse());
}

/**
 * Handle mouse move event.
 */
function handleMouseMove(evt) {
	if(evt.preventDefault)
		evt.preventDefault();

	evt.returnValue = false;

	var svgDoc = evt.target.ownerDocument;

	var g = svgDoc.getElementById("viewport");

	if(state == 'pan') {
		// Pan mode
		var p = getEventPoint(evt).matrixTransform(stateTf);

		setCTM(g, stateTf.inverse().translate(p.x - stateOrigin.x, p.y - stateOrigin.y));
	} else if(state == 'move') {
		// Move mode
		var p = getEventPoint(evt).matrixTransform(g.getCTM().inverse());

		setCTM(stateTarget, root.createSVGMatrix().translate(p.x - stateOrigin.x, p.y - stateOrigin.y).multiply(g.getCTM().inverse()).multiply(stateTarget.getCTM()));

		stateOrigin = p;
	}
}

/**
 * Handle click event.
 */
function handleMouseDown(evt) {
	if(evt.preventDefault)
		evt.preventDefault();

	evt.returnValue = false;

	var svgDoc = evt.target.ownerDocument;

	var g = svgDoc.getElementById("viewport");

	if(true || evt.target.tagName == "svg") {
		// Pan mode
		state = 'pan';

		stateTf = g.getCTM().inverse();

		stateOrigin = getEventPoint(evt).matrixTransform(stateTf);
	} else {
		// Move mode
		state = 'move';

		stateTarget = evt.target;

		stateTf = g.getCTM().inverse();

		stateOrigin = getEventPoint(evt).matrixTransform(stateTf);
	}
}

/**
 * Handle mouse button release event.
 */
function handleMouseUp(evt) {
	if(evt.preventDefault)
		evt.preventDefault();

	evt.returnValue = false;

	var svgDoc = evt.target.ownerDocument;

	if(state == 'pan' || state == 'move') {
		// Quit pan mode
		state = '';
	}
}

]]></script>
<g id="viewport" transform="translate(0,0)">
<g id="viewport" class="graph" transform="scale(1 1) rotate(0) translate(4 1332)">
<title>leiserchess; 1196 samples</title>
<polygon fill="white" stroke="none" points="-4,4 -4,-1332 1374.04,-1332 1374.04,4 -4,4"/>
<!-- Legend -->
<g id="node1" class="node"><title>Legend</title>
<text text-anchor="start" x="381.038" y="-1304.8" font-family="Times,serif" font-size="24.00">leiserchess</text>
<text text-anchor="start" x="381.038" y="-1278.8" font-family="Times,serif" font-size="24.00">Total samples: 1196</text>
<text text-anchor="start" x="381.038" y="-1252.8" font-family="Times,serif" font-size="24.00">Focusing on: 1196</text>
<text text-anchor="start" x="381.038" y="-1226.8" font-family="Times,serif" font-size="24.00">Dropped nodes with &lt;= 5 abs(samples)</text>
<text text-anchor="start" x="381.038" y="-1200.8" font-family="Times,serif" font-size="24.00">Dropped edges with &lt;= 1 samples</text>
</g>
<!-- N1 -->
<g id="node2" class="node"><title>N1</title>
<polygon fill="none" stroke="black" points="852.038,-962 782.038,-962 782.038,-918 852.038,-918 852.038,-962"/>
<text text-anchor="middle" x="817.038" y="-951.6" font-family="Times,serif" font-size="8.00">UciBeginSearch</text>
<text text-anchor="middle" x="817.038" y="-942.6" font-family="Times,serif" font-size="8.00">(inline)</text>
<text text-anchor="end" x="844.038" y="-933.6" font-family="Times,serif" font-size="8.00">0 (0.0%)</text>
<text text-anchor="end" x="844.038" y="-924.6" font-family="Times,serif" font-size="8.00">of 1190 (99.5%)</text>
</g>
<!-- N4 -->
<g id="node5" class="node"><title>N4</title>
<polygon fill="none" stroke="black" points="851.288,-865.5 782.788,-865.5 782.788,-830.5 851.288,-830.5 851.288,-865.5"/>
<text text-anchor="middle" x="817.038" y="-855.1" font-family="Times,serif" font-size="8.00">entry_point</text>
<text text-anchor="end" x="843.538" y="-846.1" font-family="Times,serif" font-size="8.00">0 (0.0%)</text>
<text text-anchor="end" x="843.538" y="-837.1" font-family="Times,serif" font-size="8.00">of 1190 (99.5%)</text>
</g>
<!-- N1&#45;&gt;N4 -->
<g id="edge7" class="edge"><title>N1&#45;&gt;N4</title>
<path fill="none" stroke="black" stroke-width="2" d="M817.038,-917.671C817.038,-905.12 817.038,-889.135 817.038,-875.746"/>
<polygon fill="black" stroke="black" stroke-width="2" points="820.538,-875.68 817.038,-865.68 813.538,-875.68 820.538,-875.68"/>
<text text-anchor="middle" x="831.038" y="-888.3" font-family="Times,serif" font-size="14.00">1190</text>
</g>
<!-- N2 -->
<g id="node3" class="node"><title>N2</title>
<polygon fill="none" stroke="black" points="854.038,-1137.5 780.038,-1137.5 780.038,-1102.5 854.038,-1102.5 854.038,-1137.5"/>
<text text-anchor="middle" x="817.038" y="-1127.1" font-family="Times,serif" font-size="8.00">__libc_start_main</text>
<text text-anchor="end" x="846.038" y="-1118.1" font-family="Times,serif" font-size="8.00">0 (0.0%)</text>
<text text-anchor="end" x="846.038" y="-1109.1" font-family="Times,serif" font-size="8.00">of 1190 (99.5%)</text>
</g>
<!-- N6 -->
<g id="node7" class="node"><title>N6</title>
<polygon fill="none" stroke="black" points="851.288,-1049.5 782.788,-1049.5 782.788,-1014.5 851.288,-1014.5 851.288,-1049.5"/>
<text text-anchor="middle" x="817.038" y="-1039.1" font-family="Times,serif" font-size="8.00">main</text>
<text text-anchor="end" x="843.538" y="-1030.1" font-family="Times,serif" font-size="8.00">0 (0.0%)</text>
<text text-anchor="end" x="843.538" y="-1021.1" font-family="Times,serif" font-size="8.00">of 1190 (99.5%)</text>
</g>
<!-- N2&#45;&gt;N6 -->
<g id="edge3" class="edge"><title>N2&#45;&gt;N6</title>
<path fill="none" stroke="black" stroke-width="2" d="M817.038,-1102.42C817.038,-1090.28 817.038,-1073.56 817.038,-1059.58"/>
<polygon fill="black" stroke="black" stroke-width="2" points="820.538,-1059.53 817.038,-1049.53 813.538,-1059.53 820.538,-1059.53"/>
<text text-anchor="middle" x="831.038" y="-1072.3" font-family="Times,serif" font-size="14.00">1190</text>
</g>
<!-- N3 -->
<g id="node4" class="node"><title>N3</title>
<polygon fill="none" stroke="black" points="851.288,-1276.5 782.788,-1276.5 782.788,-1241.5 851.288,-1241.5 851.288,-1276.5"/>
<text text-anchor="middle" x="817.038" y="-1266.1" font-family="Times,serif" font-size="8.00">_start</text>
<text text-anchor="end" x="843.538" y="-1257.1" font-family="Times,serif" font-size="8.00">0 (0.0%)</text>
<text text-anchor="end" x="843.538" y="-1248.1" font-family="Times,serif" font-size="8.00">of 1190 (99.5%)</text>
</g>
<!-- N3&#45;&gt;N2 -->
<g id="edge6" class="edge"><title>N3&#45;&gt;N2</title>
<path fill="none" stroke="black" stroke-width="2" d="M817.038,-1241.47C817.038,-1218.23 817.038,-1175.61 817.038,-1147.8"/>
<polygon fill="black" stroke="black" stroke-width="2" points="820.538,-1147.58 817.038,-1137.58 813.538,-1147.58 820.538,-1147.58"/>
<text text-anchor="middle" x="831.038" y="-1160.3" font-family="Times,serif" font-size="14.00">1190</text>
</g>
<!-- N7 -->
<g id="node8" class="node"><title>N7</title>
<polygon fill="none" stroke="black" points="851.288,-777.5 782.788,-777.5 782.788,-742.5 851.288,-742.5 851.288,-777.5"/>
<text text-anchor="middle" x="817.038" y="-767.1" font-family="Times,serif" font-size="8.00">searchRoot</text>
<text text-anchor="end" x="843.538" y="-758.1" font-family="Times,serif" font-size="8.00">0 (0.0%)</text>
<text text-anchor="end" x="843.538" y="-749.1" font-family="Times,serif" font-size="8.00">of 1190 (99.5%)</text>
</g>
<!-- N4&#45;&gt;N7 -->
<g id="edge4" class="edge"><title>N4&#45;&gt;N7</title>
<path fill="none" stroke="black" stroke-width="2" d="M817.038,-830.418C817.038,-818.283 817.038,-801.564 817.038,-787.575"/>
<polygon fill="black" stroke="black" stroke-width="2" points="820.538,-787.531 817.038,-777.531 813.538,-787.531 820.538,-787.531"/>
<text text-anchor="middle" x="831.038" y="-800.3" font-family="Times,serif" font-size="14.00">1190</text>
</g>
<!-- N5 -->
<g id="node6" class="node"><title>N5</title>
<polygon fill="none" stroke="black" points="920.038,-556.5 816.038,-556.5 816.038,-503.5 920.038,-503.5 920.038,-556.5"/>
<text text-anchor="middle" x="868.038" y="-541.94" font-family="Times,serif" font-size="13.20">evaluateMove</text>
<text text-anchor="end" x="912.038" y="-526.94" font-family="Times,serif" font-size="13.20">13 (1.1%)</text>
<text text-anchor="end" x="912.038" y="-511.94" font-family="Times,serif" font-size="13.20">of 1190 (99.5%)</text>
</g>
<!-- N8 -->
<g id="node9" class="node"><title>N8</title>
<polygon fill="none" stroke="black" points="878.288,-690 755.788,-690 755.788,-628 878.288,-628 878.288,-690"/>
<text text-anchor="middle" x="817.038" y="-672.96" font-family="Times,serif" font-size="16.30">scout_search</text>
<text text-anchor="end" x="870.538" y="-654.96" font-family="Times,serif" font-size="16.30">33 (2.8%)</text>
<text text-anchor="end" x="870.538" y="-636.96" font-family="Times,serif" font-size="16.30">of 1189 (99.4%)</text>
</g>
<!-- N5&#45;&gt;N8 -->
<g id="edge1" class="edge"><title>N5&#45;&gt;N8</title>
<path fill="none" stroke="black" stroke-width="2" d="M862.796,-556.505C859.103,-572.282 853.486,-592.746 846.038,-610 844.745,-612.994 843.294,-616.027 841.748,-619.037"/>
<polygon fill="black" stroke="black" stroke-width="2" points="838.61,-617.481 836.89,-627.936 844.754,-620.835 838.61,-617.481"/>
<text text-anchor="middle" x="865.038" y="-598.3" font-family="Times,serif" font-size="14.00">7346</text>
</g>
<!-- N11 -->
<g id="node12" class="node"><title>N11</title>
<polygon fill="none" stroke="black" points="856.288,-415.5 791.788,-415.5 791.788,-380.5 856.288,-380.5 856.288,-415.5"/>
<text text-anchor="middle" x="824.038" y="-405.1" font-family="Times,serif" font-size="8.00">searchPV</text>
<text text-anchor="end" x="848.538" y="-396.1" font-family="Times,serif" font-size="8.00">0 (0.0%)</text>
<text text-anchor="end" x="848.538" y="-387.1" font-family="Times,serif" font-size="8.00">of 436 (36.5%)</text>
</g>
<!-- N5&#45;&gt;N11 -->
<g id="edge13" class="edge"><title>N5&#45;&gt;N11</title>
<path fill="none" stroke="black" stroke-width="1.61539" d="M842.983,-503.295C834.269,-492.641 825.551,-479.599 821.038,-466 816.81,-453.265 816.997,-438.418 818.48,-425.942"/>
<polygon fill="black" stroke="black" stroke-width="1.61539" points="821.994,-426.113 820.039,-415.7 815.074,-425.06 821.994,-426.113"/>
<text text-anchor="middle" x="831.538" y="-454.3" font-family="Times,serif" font-size="14.00">322</text>
</g>
<!-- N13 -->
<g id="node14" class="node"><title>N13</title>
<polygon fill="none" stroke="black" points="1047.29,-429 932.788,-429 932.788,-367 1047.29,-367 1047.29,-429"/>
<text text-anchor="middle" x="990.038" y="-411.96" font-family="Times,serif" font-size="16.30">make_move</text>
<text text-anchor="end" x="1039.54" y="-393.96" font-family="Times,serif" font-size="16.30">33 (2.8%)</text>
<text text-anchor="end" x="1039.54" y="-375.96" font-family="Times,serif" font-size="16.30">of 182 (15.2%)</text>
</g>
<!-- N5&#45;&gt;N13 -->
<g id="edge15" class="edge"><title>N5&#45;&gt;N13</title>
<path fill="none" stroke="black" d="M892.141,-503.316C910.031,-484.253 934.703,-457.963 954.803,-436.545"/>
<polygon fill="black" stroke="black" points="957.412,-438.879 961.703,-429.192 952.308,-434.089 957.412,-438.879"/>
<text text-anchor="middle" x="949.538" y="-454.3" font-family="Times,serif" font-size="14.00">180</text>
</g>
<!-- N15 -->
<g id="node16" class="node"><title>N15</title>
<polygon fill="none" stroke="black" points="1062.29,-161 745.788,-161 745.788,-95 1062.29,-95 1062.29,-161"/>
<text text-anchor="middle" x="904.038" y="-135.56" font-family="Times,serif" font-size="26.80">__memcpy_sse2_unaligned</text>
<text text-anchor="end" x="1054.54" y="-106.56" font-family="Times,serif" font-size="26.80">169 (14.1%)</text>
</g>
<!-- N5&#45;&gt;N15 -->
<g id="edge19" class="edge"><title>N5&#45;&gt;N15</title>
<path fill="none" stroke="black" d="M871.043,-503.268C872.338,-491.858 873.829,-478.266 875.038,-466 885.487,-359.989 895.689,-235.005 900.747,-171.165"/>
<polygon fill="black" stroke="black" points="904.245,-171.33 901.543,-161.086 897.267,-170.779 904.245,-171.33"/>
<text text-anchor="middle" x="894.038" y="-334.3" font-family="Times,serif" font-size="14.00">90</text>
</g>
<!-- N31 -->
<g id="node32" class="node"><title>N31</title>
<polygon fill="none" stroke="black" points="1164.29,-417 1065.79,-417 1065.79,-379 1164.29,-379 1164.29,-417"/>
<text text-anchor="middle" x="1115.04" y="-405.48" font-family="Times,serif" font-size="9.40">is_end_game_position</text>
<text text-anchor="end" x="1156.54" y="-395.48" font-family="Times,serif" font-size="9.40">1 (0.1%)</text>
<text text-anchor="end" x="1156.54" y="-385.48" font-family="Times,serif" font-size="9.40">of 14 (1.2%)</text>
</g>
<!-- N5&#45;&gt;N31 -->
<g id="edge34" class="edge"><title>N5&#45;&gt;N31</title>
<path fill="none" stroke="black" d="M900.217,-503.44C909.541,-496.65 919.937,-489.645 930.038,-484 982.921,-454.446 1001.51,-458.388 1056.04,-432 1062.28,-428.977 1068.79,-425.591 1075.11,-422.169"/>
<polygon fill="black" stroke="black" points="1077.11,-425.065 1084.17,-417.17 1073.72,-418.936 1077.11,-425.065"/>
<text text-anchor="middle" x="1019.04" y="-454.3" font-family="Times,serif" font-size="14.00">14</text>
</g>
<!-- N6&#45;&gt;N1 -->
<g id="edge5" class="edge"><title>N6&#45;&gt;N1</title>
<path fill="none" stroke="black" stroke-width="2" stroke-dasharray="5,2" d="M817.038,-1014.49C817.038,-1002.77 817.038,-986.652 817.038,-972.502"/>
<polygon fill="black" stroke="black" stroke-width="2" points="820.538,-972.168 817.038,-962.169 813.538,-972.169 820.538,-972.168"/>
<text text-anchor="middle" x="831.038" y="-984.3" font-family="Times,serif" font-size="14.00">1190</text>
</g>
<!-- N7&#45;&gt;N8 -->
<g id="edge9" class="edge"><title>N7&#45;&gt;N8</title>
<path fill="none" stroke="black" stroke-width="2" d="M817.038,-742.206C817.038,-730.753 817.038,-715.072 817.038,-700.474"/>
<polygon fill="black" stroke="black" stroke-width="2" points="820.538,-700.113 817.038,-690.113 813.538,-700.113 820.538,-700.113"/>
<text text-anchor="middle" x="827.538" y="-712.3" font-family="Times,serif" font-size="14.00">754</text>
</g>
<!-- N7&#45;&gt;N11 -->
<g id="edge12" class="edge"><title>N7&#45;&gt;N11</title>
<path fill="none" stroke="black" stroke-width="2" d="M790.529,-742.352C725.91,-699.651 570.096,-582.654 634.038,-484 666.494,-433.924 736.138,-413.083 781.488,-404.597"/>
<polygon fill="black" stroke="black" stroke-width="2" points="782.364,-407.998 791.614,-402.831 781.161,-401.102 782.364,-407.998"/>
<text text-anchor="middle" x="655.538" y="-598.3" font-family="Times,serif" font-size="14.00">436</text>
</g>
<!-- N8&#45;&gt;N5 -->
<g id="edge2" class="edge"><title>N8&#45;&gt;N5</title>
<path fill="none" stroke="black" stroke-width="2" d="M810.813,-627.936C809.778,-616.963 810.101,-604.641 814.038,-594 817.979,-583.346 824.616,-573.277 831.914,-564.444"/>
<polygon fill="black" stroke="black" stroke-width="2" points="834.756,-566.514 838.744,-556.699 829.505,-561.885 834.756,-566.514"/>
<text text-anchor="middle" x="828.038" y="-598.3" font-family="Times,serif" font-size="14.00">7212</text>
</g>
<!-- N9 -->
<g id="node10" class="node"><title>N9</title>
<polygon fill="none" stroke="black" points="586.038,-549 506.038,-549 506.038,-511 586.038,-511 586.038,-549"/>
<text text-anchor="middle" x="546.038" y="-537.48" font-family="Times,serif" font-size="9.40">evaluate_as_leaf</text>
<text text-anchor="end" x="578.038" y="-527.48" font-family="Times,serif" font-size="9.40">1 (0.1%)</text>
<text text-anchor="end" x="578.038" y="-517.48" font-family="Times,serif" font-size="9.40">of 592 (49.5%)</text>
</g>
<!-- N8&#45;&gt;N9 -->
<g id="edge10" class="edge"><title>N8&#45;&gt;N9</title>
<path fill="none" stroke="black" stroke-width="2" d="M755.676,-631.446C719.972,-615.762 674.222,-595.262 634.038,-576 619.44,-569.003 603.652,-561.052 589.532,-553.801"/>
<polygon fill="black" stroke="black" stroke-width="2" points="591.015,-550.628 580.523,-549.153 587.806,-556.849 591.015,-550.628"/>
<text text-anchor="middle" x="714.538" y="-598.3" font-family="Times,serif" font-size="14.00">592</text>
</g>
<!-- N16 -->
<g id="node17" class="node"><title>N16</title>
<polygon fill="none" stroke="black" points="797.288,-576 642.788,-576 642.788,-484 797.288,-484 797.288,-576"/>
<text text-anchor="middle" x="720.038" y="-551.52" font-family="Times,serif" font-size="25.60">sort_insertion</text>
<text text-anchor="middle" x="720.038" y="-523.52" font-family="Times,serif" font-size="25.60">(inline)</text>
<text text-anchor="end" x="789.538" y="-495.52" font-family="Times,serif" font-size="25.60">149 (12.5%)</text>
</g>
<!-- N8&#45;&gt;N16 -->
<g id="edge17" class="edge"><title>N8&#45;&gt;N16</title>
<path fill="none" stroke="black" stroke-dasharray="5,2" d="M794.05,-627.903C784.123,-614.906 772.203,-599.299 760.858,-584.446"/>
<polygon fill="black" stroke="black" points="763.482,-582.115 754.631,-576.292 757.919,-586.364 763.482,-582.115"/>
<text text-anchor="middle" x="790.538" y="-598.3" font-family="Times,serif" font-size="14.00">149</text>
</g>
<!-- N18 -->
<g id="node19" class="node"><title>N18</title>
<polygon fill="none" stroke="black" points="1109.29,-561 938.788,-561 938.788,-499 1109.29,-499 1109.29,-561"/>
<text text-anchor="middle" x="1024.04" y="-543.88" font-family="Times,serif" font-size="16.40">get_sortable_move_list</text>
<text text-anchor="end" x="1101.54" y="-525.88" font-family="Times,serif" font-size="16.40">34 (2.8%)</text>
<text text-anchor="end" x="1101.54" y="-507.88" font-family="Times,serif" font-size="16.40">of 85 (7.1%)</text>
</g>
<!-- N8&#45;&gt;N18 -->
<g id="edge20" class="edge"><title>N8&#45;&gt;N18</title>
<path fill="none" stroke="black" d="M866.094,-627.903C896.146,-609.465 934.76,-585.774 966.285,-566.433"/>
<polygon fill="black" stroke="black" points="968.282,-569.314 974.975,-561.101 964.621,-563.347 968.282,-569.314"/>
<text text-anchor="middle" x="927.038" y="-598.3" font-family="Times,serif" font-size="14.00">85</text>
</g>
<!-- N26 -->
<g id="node27" class="node"><title>N26</title>
<polygon fill="none" stroke="black" points="1216.29,-558 1127.79,-558 1127.79,-502 1216.29,-502 1216.29,-558"/>
<text text-anchor="middle" x="1172.04" y="-542.56" font-family="Times,serif" font-size="14.30">scout_search</text>
<text text-anchor="middle" x="1172.04" y="-526.56" font-family="Times,serif" font-size="14.30">(inline)</text>
<text text-anchor="end" x="1208.54" y="-510.56" font-family="Times,serif" font-size="14.30">19 (1.6%)</text>
</g>
<!-- N8&#45;&gt;N26 -->
<g id="edge29" class="edge"><title>N8&#45;&gt;N26</title>
<path fill="none" stroke="black" stroke-dasharray="5,2" d="M878.385,-649.201C941.283,-638.407 1040.59,-616.357 1118.04,-576 1124.15,-572.817 1130.18,-568.851 1135.89,-564.601"/>
<polygon fill="black" stroke="black" points="1138.29,-567.168 1143.98,-558.23 1133.95,-561.669 1138.29,-567.168"/>
<text text-anchor="middle" x="1078.04" y="-598.3" font-family="Times,serif" font-size="14.00">19</text>
</g>
<!-- N10 -->
<g id="node11" class="node"><title>N10</title>
<polygon fill="none" stroke="black" points="609.038,-432 483.038,-432 483.038,-364 609.038,-364 609.038,-432"/>
<text text-anchor="middle" x="546.038" y="-413.36" font-family="Times,serif" font-size="18.30">eval</text>
<text text-anchor="end" x="601.038" y="-393.36" font-family="Times,serif" font-size="18.30">51 (4.3%)</text>
<text text-anchor="end" x="601.038" y="-373.36" font-family="Times,serif" font-size="18.30">of 573 (47.9%)</text>
</g>
<!-- N9&#45;&gt;N10 -->
<g id="edge11" class="edge"><title>N9&#45;&gt;N10</title>
<path fill="none" stroke="black" stroke-width="2" d="M546.038,-510.924C546.038,-493.239 546.038,-465.631 546.038,-442.26"/>
<polygon fill="black" stroke="black" stroke-width="2" points="549.538,-442.209 546.038,-432.209 542.538,-442.209 549.538,-442.209"/>
<text text-anchor="middle" x="556.538" y="-454.3" font-family="Times,serif" font-size="14.00">573</text>
</g>
<!-- N29 -->
<g id="node30" class="node"><title>N29</title>
<polygon fill="none" stroke="black" points="464.288,-417 359.788,-417 359.788,-379 464.288,-379 464.288,-417"/>
<text text-anchor="middle" x="412.038" y="-401.96" font-family="Times,serif" font-size="13.80">tt_hashtable_get</text>
<text text-anchor="end" x="456.538" y="-386.96" font-family="Times,serif" font-size="13.80">16 (1.3%)</text>
</g>
<!-- N9&#45;&gt;N29 -->
<g id="edge32" class="edge"><title>N9&#45;&gt;N29</title>
<path fill="none" stroke="black" d="M527.405,-510.924C504.235,-488.446 464.541,-449.936 438.294,-424.473"/>
<polygon fill="black" stroke="black" points="440.558,-421.793 430.943,-417.342 435.684,-426.817 440.558,-421.793"/>
<text text-anchor="middle" x="486.038" y="-454.3" font-family="Times,serif" font-size="14.00">16</text>
</g>
<!-- N12 -->
<g id="node13" class="node"><title>N12</title>
<polygon fill="none" stroke="black" points="551.038,-311.5 381.038,-311.5 381.038,-222.5 551.038,-222.5 551.038,-311.5"/>
<text text-anchor="middle" x="466.038" y="-287.58" font-family="Times,serif" font-size="24.90">pawnpin</text>
<text text-anchor="end" x="543.038" y="-260.58" font-family="Times,serif" font-size="24.90">136 (11.4%)</text>
<text text-anchor="end" x="543.038" y="-233.58" font-family="Times,serif" font-size="24.90">of 206 (17.2%)</text>
</g>
<!-- N10&#45;&gt;N12 -->
<g id="edge14" class="edge"><title>N10&#45;&gt;N12</title>
<path fill="none" stroke="black" stroke-width="1.02341" d="M525.436,-363.779C517.231,-350.55 507.59,-335.003 498.49,-320.329"/>
<polygon fill="black" stroke="black" stroke-width="1.02341" points="501.454,-318.468 493.209,-311.814 495.505,-322.157 501.454,-318.468"/>
<text text-anchor="middle" x="524.538" y="-334.3" font-family="Times,serif" font-size="14.00">204</text>
</g>
<!-- N14 -->
<g id="node15" class="node"><title>N14</title>
<polygon fill="none" stroke="black" points="241.038,-307 35.0375,-307 35.0375,-227 241.038,-227 241.038,-307"/>
<text text-anchor="middle" x="138.038" y="-285.4" font-family="Times,serif" font-size="22.00">h_squares_attackable</text>
<text text-anchor="end" x="233.038" y="-261.4" font-family="Times,serif" font-size="22.00">94 (7.9%)</text>
<text text-anchor="end" x="233.038" y="-237.4" font-family="Times,serif" font-size="22.00">of 171 (14.3%)</text>
</g>
<!-- N10&#45;&gt;N14 -->
<g id="edge16" class="edge"><title>N10&#45;&gt;N14</title>
<path fill="none" stroke="black" d="M482.669,-367.341C479.437,-366.148 476.214,-365.025 473.038,-364 434.63,-351.61 423.386,-354.965 384.038,-346 324.13,-332.35 308.525,-330.826 250.038,-312 248.363,-311.461 246.677,-310.91 244.983,-310.348"/>
<polygon fill="black" stroke="black" points="245.798,-306.928 235.204,-307.021 243.544,-313.555 245.798,-306.928"/>
<text text-anchor="middle" x="394.538" y="-334.3" font-family="Times,serif" font-size="14.00">171</text>
</g>
<!-- N19 -->
<g id="node20" class="node"><title>N19</title>
<polygon fill="none" stroke="black" points="363.038,-299.5 259.038,-299.5 259.038,-234.5 363.038,-234.5 363.038,-299.5"/>
<text text-anchor="middle" x="311.038" y="-281.9" font-family="Times,serif" font-size="17.00">mobility</text>
<text text-anchor="end" x="355.038" y="-262.9" font-family="Times,serif" font-size="17.00">39 (3.3%)</text>
<text text-anchor="end" x="355.038" y="-243.9" font-family="Times,serif" font-size="17.00">of 68 (5.7%)</text>
</g>
<!-- N10&#45;&gt;N19 -->
<g id="edge22" class="edge"><title>N10&#45;&gt;N19</title>
<path fill="none" stroke="black" d="M482.786,-367.489C441.658,-348.034 392.083,-324.006 372.038,-312 368.607,-309.945 365.124,-307.752 361.651,-305.484"/>
<polygon fill="black" stroke="black" points="363.325,-302.392 353.071,-299.725 359.423,-308.204 363.325,-302.392"/>
<text text-anchor="middle" x="443.038" y="-334.3" font-family="Times,serif" font-size="14.00">68</text>
</g>
<!-- N20 -->
<g id="node21" class="node"><title>N20</title>
<polygon fill="none" stroke="black" points="291.038,-154 195.038,-154 195.038,-102 291.038,-102 291.038,-154"/>
<text text-anchor="middle" x="243.038" y="-134.24" font-family="Times,serif" font-size="19.70">square_of</text>
<text text-anchor="end" x="283.038" y="-112.24" font-family="Times,serif" font-size="19.70">66 (5.5%)</text>
</g>
<!-- N10&#45;&gt;N20 -->
<g id="edge42" class="edge"><title>N10&#45;&gt;N20</title>
<path fill="none" stroke="black" d="M482.774,-366.99C479.514,-365.89 476.257,-364.883 473.038,-364 375.104,-337.148 86.5632,-387.844 19.0375,-312 -7.56084,-282.125 -4.64486,-254.236 19.0375,-222 64.8114,-159.694 115.742,-204.285 185.038,-170 191.053,-167.024 197.131,-163.46 202.975,-159.694"/>
<polygon fill="black" stroke="black" points="204.987,-162.558 211.333,-154.074 201.082,-156.749 204.987,-162.558"/>
<text text-anchor="middle" x="22.5375" y="-263.3" font-family="Times,serif" font-size="14.00">7</text>
</g>
<!-- N24 -->
<g id="node25" class="node"><title>N24</title>
<polygon fill="none" stroke="black" points="695.288,-298 612.788,-298 612.788,-236 695.288,-236 695.288,-298"/>
<text text-anchor="middle" x="654.038" y="-280.56" font-family="Times,serif" font-size="16.80">pcentral</text>
<text text-anchor="middle" x="654.038" y="-262.56" font-family="Times,serif" font-size="16.80">(inline)</text>
<text text-anchor="end" x="687.538" y="-244.56" font-family="Times,serif" font-size="16.80">37 (3.1%)</text>
</g>
<!-- N10&#45;&gt;N24 -->
<g id="edge25" class="edge"><title>N10&#45;&gt;N24</title>
<path fill="none" stroke="black" stroke-dasharray="5,2" d="M584.145,-363.793C590.027,-358.073 595.86,-352.024 601.038,-346 611.442,-333.894 621.609,-319.695 630.211,-306.754"/>
<polygon fill="black" stroke="black" points="633.365,-308.324 635.899,-298.036 627.503,-304.499 633.365,-308.324"/>
<text text-anchor="middle" x="619.038" y="-334.3" font-family="Times,serif" font-size="14.00">37</text>
</g>
<!-- N28 -->
<g id="node29" class="node"><title>N28</title>
<polygon fill="none" stroke="black" points="623.038,-147 551.038,-147 551.038,-109 623.038,-109 623.038,-147"/>
<text text-anchor="middle" x="587.038" y="-131.8" font-family="Times,serif" font-size="14.00">ptype_of</text>
<text text-anchor="end" x="615.038" y="-116.8" font-family="Times,serif" font-size="14.00">17 (1.4%)</text>
</g>
<!-- N10&#45;&gt;N28 -->
<g id="edge40" class="edge"><title>N10&#45;&gt;N28</title>
<path fill="none" stroke="black" d="M551.618,-363.92C554.236,-348.2 557.362,-329.141 560.038,-312 568.567,-257.364 577.837,-193.436 582.993,-157.433"/>
<polygon fill="black" stroke="black" points="586.506,-157.592 584.456,-147.197 579.576,-156.602 586.506,-157.592"/>
<text text-anchor="middle" x="576.538" y="-263.3" font-family="Times,serif" font-size="14.00">8</text>
</g>
<!-- N33 -->
<g id="node34" class="node"><title>N33</title>
<polygon fill="none" stroke="black" points="790.288,-292 713.788,-292 713.788,-242 790.288,-242 790.288,-292"/>
<text text-anchor="middle" x="752.038" y="-278.16" font-family="Times,serif" font-size="12.30">kface</text>
<text text-anchor="end" x="782.538" y="-264.16" font-family="Times,serif" font-size="12.30">9 (0.8%)</text>
<text text-anchor="end" x="782.538" y="-250.16" font-family="Times,serif" font-size="12.30">of 12 (1.0%)</text>
</g>
<!-- N10&#45;&gt;N33 -->
<g id="edge37" class="edge"><title>N10&#45;&gt;N33</title>
<path fill="none" stroke="black" d="M609.304,-367.511C639.078,-352.509 674.457,-333.018 704.038,-312 709.61,-308.041 715.228,-303.497 720.559,-298.866"/>
<polygon fill="black" stroke="black" points="723.021,-301.359 728.126,-292.076 718.346,-296.149 723.021,-301.359"/>
<text text-anchor="middle" x="682.038" y="-334.3" font-family="Times,serif" font-size="14.00">12</text>
</g>
<!-- N34 -->
<g id="node35" class="node"><title>N34</title>
<polygon fill="none" stroke="black" points="875.288,-295 808.788,-295 808.788,-239 875.288,-239 875.288,-295"/>
<text text-anchor="middle" x="842.038" y="-282.28" font-family="Times,serif" font-size="10.90">pbetween</text>
<text text-anchor="middle" x="842.038" y="-270.28" font-family="Times,serif" font-size="10.90">(inline)</text>
<text text-anchor="end" x="867.538" y="-258.28" font-family="Times,serif" font-size="10.90">4 (0.3%)</text>
<text text-anchor="end" x="867.538" y="-246.28" font-family="Times,serif" font-size="10.90">of 8 (0.7%)</text>
</g>
<!-- N10&#45;&gt;N34 -->
<g id="edge41" class="edge"><title>N10&#45;&gt;N34</title>
<path fill="none" stroke="black" stroke-dasharray="5,2" d="M609.166,-384.542C662.658,-372.009 739.874,-349.134 799.038,-312 803.448,-309.232 807.738,-305.922 811.793,-302.378"/>
<polygon fill="black" stroke="black" points="814.379,-304.751 819.273,-295.354 809.587,-299.648 814.379,-304.751"/>
<text text-anchor="middle" x="763.538" y="-334.3" font-family="Times,serif" font-size="14.00">8</text>
</g>
<!-- N11&#45;&gt;N5 -->
<g id="edge8" class="edge"><title>N11&#45;&gt;N5</title>
<path fill="none" stroke="black" stroke-width="2" d="M831.955,-415.771C836.428,-425.611 841.928,-438.361 846.038,-450 850.986,-464.014 855.557,-479.735 859.235,-493.441"/>
<polygon fill="black" stroke="black" stroke-width="2" points="855.943,-494.683 861.866,-503.467 862.713,-492.906 855.943,-494.683"/>
<text text-anchor="middle" x="860.538" y="-454.3" font-family="Times,serif" font-size="14.00">758</text>
</g>
<!-- N12&#45;&gt;N20 -->
<g id="edge26" class="edge"><title>N12&#45;&gt;N20</title>
<path fill="none" stroke="black" d="M403.352,-222.349C384.986,-210.459 364.581,-198.089 345.038,-188 325.897,-178.119 318.92,-180.366 300.038,-170 294.498,-166.959 288.864,-163.468 283.401,-159.834"/>
<polygon fill="black" stroke="black" points="285.219,-156.836 274.997,-154.051 281.251,-162.603 285.219,-156.836"/>
<text text-anchor="middle" x="380.038" y="-192.3" font-family="Times,serif" font-size="14.00">35</text>
</g>
<!-- N21 -->
<g id="node22" class="node"><title>N21</title>
<polygon fill="none" stroke="black" points="442.288,-170 309.788,-170 309.788,-86 442.288,-86 442.288,-170"/>
<text text-anchor="middle" x="376.038" y="-152" font-family="Times,serif" font-size="17.50">mark_laser_path</text>
<text text-anchor="middle" x="376.038" y="-133" font-family="Times,serif" font-size="17.50">(inline)</text>
<text text-anchor="end" x="434.538" y="-114" font-family="Times,serif" font-size="17.50">43 (3.6%)</text>
<text text-anchor="end" x="434.538" y="-95" font-family="Times,serif" font-size="17.50">of 50 (4.2%)</text>
</g>
<!-- N12&#45;&gt;N21 -->
<g id="edge38" class="edge"><title>N12&#45;&gt;N21</title>
<path fill="none" stroke="black" stroke-dasharray="5,2" d="M437.314,-222.276C428.282,-208.528 418.24,-193.241 408.941,-179.087"/>
<polygon fill="black" stroke="black" points="411.68,-176.88 403.264,-170.444 405.829,-180.724 411.68,-176.88"/>
<text text-anchor="middle" x="431.038" y="-192.3" font-family="Times,serif" font-size="14.00">12</text>
</g>
<!-- N27 -->
<g id="node28" class="node"><title>N27</title>
<polygon fill="none" stroke="black" points="533.038,-147 461.038,-147 461.038,-109 533.038,-109 533.038,-147"/>
<text text-anchor="middle" x="497.038" y="-131.8" font-family="Times,serif" font-size="14.00">color_of</text>
<text text-anchor="end" x="525.038" y="-116.8" font-family="Times,serif" font-size="14.00">17 (1.4%)</text>
</g>
<!-- N12&#45;&gt;N27 -->
<g id="edge36" class="edge"><title>N12&#45;&gt;N27</title>
<path fill="none" stroke="black" d="M475.931,-222.276C480.753,-200.967 486.411,-175.962 490.655,-157.208"/>
<polygon fill="black" stroke="black" points="494.119,-157.756 492.912,-147.23 487.292,-156.211 494.119,-157.756"/>
<text text-anchor="middle" x="491.038" y="-192.3" font-family="Times,serif" font-size="14.00">12</text>
</g>
<!-- N12&#45;&gt;N28 -->
<g id="edge39" class="edge"><title>N12&#45;&gt;N28</title>
<path fill="none" stroke="black" d="M504.655,-222.276C524.263,-200.075 547.415,-173.862 564.174,-154.887"/>
<polygon fill="black" stroke="black" points="566.94,-157.042 570.936,-147.23 561.693,-152.408 566.94,-157.042"/>
<text text-anchor="middle" x="537.538" y="-192.3" font-family="Times,serif" font-size="14.00">8</text>
</g>
<!-- N17 -->
<g id="node18" class="node"><title>N17</title>
<polygon fill="none" stroke="black" points="1077.29,-303 932.788,-303 932.788,-231 1077.29,-231 1077.29,-303"/>
<text text-anchor="middle" x="1005.04" y="-287.72" font-family="Times,serif" font-size="14.10">low_level_make_move</text>
<text text-anchor="middle" x="1005.04" y="-271.72" font-family="Times,serif" font-size="14.10">(inline)</text>
<text text-anchor="end" x="1069.54" y="-255.72" font-family="Times,serif" font-size="14.10">18 (1.5%)</text>
<text text-anchor="end" x="1069.54" y="-239.72" font-family="Times,serif" font-size="14.10">of 101 (8.4%)</text>
</g>
<!-- N13&#45;&gt;N17 -->
<g id="edge18" class="edge"><title>N13&#45;&gt;N17</title>
<path fill="none" stroke="black" stroke-dasharray="5,2" d="M993.554,-366.755C995.407,-350.819 997.718,-330.952 999.779,-313.224"/>
<polygon fill="black" stroke="black" points="1003.28,-313.417 1000.96,-303.079 996.327,-312.608 1003.28,-313.417"/>
<text text-anchor="middle" x="1007.54" y="-334.3" font-family="Times,serif" font-size="14.00">101</text>
</g>
<!-- N22 -->
<g id="node23" class="node"><title>N22</title>
<polygon fill="none" stroke="black" points="1196.29,-307 1095.79,-307 1095.79,-227 1196.29,-227 1196.29,-307"/>
<text text-anchor="middle" x="1146.04" y="-289.56" font-family="Times,serif" font-size="16.80">fire_laser</text>
<text text-anchor="middle" x="1146.04" y="-271.56" font-family="Times,serif" font-size="16.80">(inline)</text>
<text text-anchor="end" x="1188.54" y="-253.56" font-family="Times,serif" font-size="16.80">37 (3.1%)</text>
<text text-anchor="end" x="1188.54" y="-235.56" font-family="Times,serif" font-size="16.80">of 42 (3.5%)</text>
</g>
<!-- N13&#45;&gt;N22 -->
<g id="edge23" class="edge"><title>N13&#45;&gt;N22</title>
<path fill="none" stroke="black" stroke-dasharray="5,2" d="M1026.61,-366.755C1045.78,-350.904 1069.65,-331.163 1091,-313.508"/>
<polygon fill="black" stroke="black" points="1093.27,-316.178 1098.74,-307.108 1088.81,-310.784 1093.27,-316.178"/>
<text text-anchor="middle" x="1075.04" y="-334.3" font-family="Times,serif" font-size="14.00">42</text>
</g>
<!-- N14&#45;&gt;N20 -->
<g id="edge31" class="edge"><title>N14&#45;&gt;N20</title>
<path fill="none" stroke="black" d="M168.126,-226.741C183.822,-206.262 202.807,-181.491 217.738,-162.01"/>
<polygon fill="black" stroke="black" points="220.562,-164.079 223.867,-154.013 215.006,-159.821 220.562,-164.079"/>
<text text-anchor="middle" x="204.038" y="-192.3" font-family="Times,serif" font-size="14.00">18</text>
</g>
<!-- N14&#45;&gt;N21 -->
<g id="edge30" class="edge"><title>N14&#45;&gt;N21</title>
<path fill="none" stroke="black" stroke-dasharray="5,2" d="M210.305,-226.889C223.89,-219.385 237.938,-211.52 251.038,-204 267.149,-194.751 284.299,-184.64 300.566,-174.921"/>
<polygon fill="black" stroke="black" points="302.72,-177.711 309.501,-169.57 299.123,-171.705 302.72,-177.711"/>
<text text-anchor="middle" x="283.038" y="-192.3" font-family="Times,serif" font-size="14.00">18</text>
</g>
<!-- N23 -->
<g id="node24" class="node"><title>N23</title>
<polygon fill="none" stroke="black" points="176.538,-168 79.5375,-168 79.5375,-88 176.538,-88 176.538,-168"/>
<text text-anchor="middle" x="128.038" y="-150.96" font-family="Times,serif" font-size="16.30">h_dist</text>
<text text-anchor="middle" x="128.038" y="-132.96" font-family="Times,serif" font-size="16.30">(inline)</text>
<text text-anchor="end" x="169.038" y="-114.96" font-family="Times,serif" font-size="16.30">33 (2.8%)</text>
<text text-anchor="end" x="169.038" y="-96.96" font-family="Times,serif" font-size="16.30">of 38 (3.2%)</text>
</g>
<!-- N14&#45;&gt;N23 -->
<g id="edge24" class="edge"><title>N14&#45;&gt;N23</title>
<path fill="none" stroke="black" stroke-dasharray="5,2" d="M135.172,-226.741C134.074,-211.694 132.806,-194.328 131.647,-178.447"/>
<polygon fill="black" stroke="black" points="135.122,-177.983 130.904,-168.264 128.141,-178.493 135.122,-177.983"/>
<text text-anchor="middle" x="141.038" y="-192.3" font-family="Times,serif" font-size="14.00">38</text>
</g>
<!-- N17&#45;&gt;N15 -->
<g id="edge21" class="edge"><title>N17&#45;&gt;N15</title>
<path fill="none" stroke="black" d="M979.028,-230.719C965.219,-211.989 948.187,-188.886 933.847,-169.435"/>
<polygon fill="black" stroke="black" points="936.634,-167.317 927.883,-161.345 931,-171.471 936.634,-167.317"/>
<text text-anchor="middle" x="964.038" y="-192.3" font-family="Times,serif" font-size="14.00">79</text>
</g>
<!-- N25 -->
<g id="node26" class="node"><title>N25</title>
<polygon fill="none" stroke="black" points="1266.54,-424.5 1183.54,-424.5 1183.54,-371.5 1266.54,-371.5 1266.54,-424.5"/>
<text text-anchor="middle" x="1225.04" y="-409.78" font-family="Times,serif" font-size="13.40">generate_all</text>
<text text-anchor="end" x="1259.04" y="-394.78" font-family="Times,serif" font-size="13.40">14 (1.2%)</text>
<text text-anchor="end" x="1259.04" y="-379.78" font-family="Times,serif" font-size="13.40">of 21 (1.8%)</text>
</g>
<!-- N18&#45;&gt;N25 -->
<g id="edge27" class="edge"><title>N18&#45;&gt;N25</title>
<path fill="none" stroke="black" d="M1070.66,-498.849C1102.46,-478.28 1144.48,-451.103 1176.65,-430.295"/>
<polygon fill="black" stroke="black" points="1178.95,-432.976 1185.45,-424.606 1175.15,-427.098 1178.95,-432.976"/>
<text text-anchor="middle" x="1149.04" y="-454.3" font-family="Times,serif" font-size="14.00">21</text>
</g>
<!-- N30 -->
<g id="node31" class="node"><title>N30</title>
<polygon fill="none" stroke="black" points="1370.29,-424.5 1285.79,-424.5 1285.79,-371.5 1370.29,-371.5 1370.29,-424.5"/>
<text text-anchor="middle" x="1328.04" y="-409.62" font-family="Times,serif" font-size="13.60">set_sort_key</text>
<text text-anchor="middle" x="1328.04" y="-394.62" font-family="Times,serif" font-size="13.60">(inline)</text>
<text text-anchor="end" x="1362.54" y="-379.62" font-family="Times,serif" font-size="13.60">15 (1.3%)</text>
</g>
<!-- N18&#45;&gt;N30 -->
<g id="edge33" class="edge"><title>N18&#45;&gt;N30</title>
<path fill="none" stroke="black" stroke-dasharray="5,2" d="M1084.63,-498.97C1095.96,-493.735 1107.78,-488.525 1119.04,-484 1186.85,-456.752 1208.89,-463.085 1275.04,-432 1276.8,-431.17 1278.58,-430.294 1280.37,-429.382"/>
<polygon fill="black" stroke="black" points="1282.12,-432.409 1289.25,-424.572 1278.79,-426.253 1282.12,-432.409"/>
<text text-anchor="middle" x="1234.04" y="-454.3" font-family="Times,serif" font-size="14.00">15</text>
</g>
<!-- N19&#45;&gt;N20 -->
<g id="edge43" class="edge"><title>N19&#45;&gt;N20</title>
<path fill="none" stroke="black" d="M268.064,-234.169C259.244,-225.429 251.112,-215.227 246.038,-204 240.49,-191.725 238.933,-177.136 239.049,-164.101"/>
<polygon fill="black" stroke="black" points="242.548,-164.189 239.456,-154.055 235.554,-163.906 242.548,-164.189"/>
<text text-anchor="middle" x="249.538" y="-192.3" font-family="Times,serif" font-size="14.00">6</text>
</g>
<!-- N19&#45;&gt;N21 -->
<g id="edge28" class="edge"><title>N19&#45;&gt;N21</title>
<path fill="none" stroke="black" stroke-dasharray="5,2" d="M316.175,-234.245C319.278,-219.677 324.026,-202.467 331.038,-188 332.544,-184.892 334.228,-181.787 336.037,-178.72"/>
<polygon fill="black" stroke="black" points="339.037,-180.526 341.419,-170.202 333.119,-176.787 339.037,-180.526"/>
<text text-anchor="middle" x="338.038" y="-192.3" font-family="Times,serif" font-size="14.00">20</text>
</g>
<!-- N35 -->
<g id="node36" class="node"><title>N35</title>
<polygon fill="none" stroke="black" points="404.538,-34 347.538,-34 347.538,-0 404.538,-0 404.538,-34"/>
<text text-anchor="middle" x="376.038" y="-20.56" font-family="Times,serif" font-size="11.80">beam_of</text>
<text text-anchor="end" x="397.038" y="-7.56" font-family="Times,serif" font-size="11.80">7 (0.6%)</text>
</g>
<!-- N21&#45;&gt;N35 -->
<g id="edge44" class="edge"><title>N21&#45;&gt;N35</title>
<path fill="none" stroke="black" d="M376.038,-85.7918C376.038,-71.8966 376.038,-56.7738 376.038,-44.3444"/>
<polygon fill="black" stroke="black" points="379.538,-44.2135 376.038,-34.2136 372.538,-44.2136 379.538,-44.2135"/>
<text text-anchor="middle" x="379.538" y="-56.3" font-family="Times,serif" font-size="14.00">5</text>
</g>
<!-- N32 -->
<g id="node33" class="node"><title>N32</title>
<polygon fill="none" stroke="black" points="1307.04,-293.5 1215.04,-293.5 1215.04,-240.5 1307.04,-240.5 1307.04,-293.5"/>
<text text-anchor="middle" x="1261.04" y="-278.94" font-family="Times,serif" font-size="13.20">is_game_over</text>
<text text-anchor="middle" x="1261.04" y="-263.94" font-family="Times,serif" font-size="13.20">(inline)</text>
<text text-anchor="end" x="1299.04" y="-248.94" font-family="Times,serif" font-size="13.20">13 (1.1%)</text>
</g>
<!-- N31&#45;&gt;N32 -->
<g id="edge35" class="edge"><title>N31&#45;&gt;N32</title>
<path fill="none" stroke="black" stroke-dasharray="5,2" d="M1135.65,-378.791C1158.64,-358.477 1196.28,-325.214 1224.34,-300.428"/>
<polygon fill="black" stroke="black" points="1226.8,-302.923 1231.97,-293.679 1222.16,-297.678 1226.8,-302.923"/>
<text text-anchor="middle" x="1195.04" y="-334.3" font-family="Times,serif" font-size="14.00">13</text>
</g>
</g>
</g></svg>
